<svg width="58" height="60" viewBox="0 0 58 60" fill="none" xmlns="http://www.w3.org/2000/svg">
<g clip-path="url(#clip0_2187_20223)">
<path fill-rule="evenodd" clip-rule="evenodd" d="M25.3773 18.5814V44.6743C25.3869 44.8507 25.3565 45.0271 25.288 45.1926C25.2195 45.3581 25.1143 45.5094 24.9789 45.6373C24.8435 45.7652 24.6806 45.867 24.5001 45.9365C24.3196 46.0061 24.1253 46.042 23.929 46.042C23.7326 46.042 23.5383 46.0061 23.3578 45.9365C23.1774 45.867 23.0145 45.7652 22.879 45.6373C22.7436 45.5094 22.6385 45.3581 22.57 45.1926C22.5015 45.0271 22.4711 44.8507 22.4806 44.6743V25.1096C22.46 24.257 22.0691 23.4455 21.3914 22.849C20.7138 22.2526 19.8034 21.9185 18.8554 21.9185C17.9073 21.9185 16.9969 22.2526 16.3193 22.849C15.6417 23.4455 15.2507 24.257 15.2302 25.1096V44.6743C15.2397 44.8507 15.2093 45.0271 15.1408 45.1926C15.0723 45.3581 14.9671 45.5094 14.8317 45.6373C14.6963 45.7652 14.5334 45.867 14.3529 45.9365C14.1724 46.0061 13.9781 46.042 13.7818 46.042C13.5854 46.042 13.3911 46.0061 13.2107 45.9365C13.0302 45.867 12.8673 45.7652 12.7319 45.6373C12.5964 45.5094 12.4913 45.3581 12.4228 45.1926C12.3543 45.0271 12.3239 44.8507 12.3334 44.6743V31.6317C12.3439 31.1975 12.2578 30.7658 12.0803 30.3619C11.9029 29.958 11.6375 29.5901 11.2998 29.2797C10.9622 28.9693 10.559 28.7227 10.114 28.5543C9.66891 28.3859 9.19098 28.2992 8.70818 28.2992C8.22538 28.2992 7.74745 28.3859 7.30241 28.5543C6.85737 28.7227 6.45419 28.9693 6.11652 29.2797C5.77886 29.5901 5.5135 29.958 5.33602 30.3619C5.15853 30.7658 5.0725 31.1975 5.08297 31.6317V44.6743C5.08297 46.75 5.99962 48.7407 7.63129 50.2085C9.26295 51.6762 11.476 52.5008 13.7835 52.5008H49.3012C51.6087 52.5008 53.8217 51.6762 55.4534 50.2085C57.085 48.7407 58.0017 46.75 58.0017 44.6743V30.9787C58.003 29.7128 57.6625 28.4656 57.0096 27.3442C56.3566 26.2228 55.4106 25.2608 54.253 24.541L54.2052 24.5118L54.1337 24.4689L34.0574 12.2188C33.9398 12.1437 33.8206 12.0655 33.6996 11.9996L33.6842 11.9919C32.2848 11.1879 30.6589 10.7607 28.9983 10.7607C27.3377 10.7607 25.7118 11.1879 24.3124 11.9919C24.0687 12.1316 23.8332 12.2825 23.6069 12.4441L22.4755 13.1706V10.7641C22.4859 10.33 22.3999 9.89825 22.2224 9.49436C22.0449 9.09048 21.7796 8.72254 21.4419 8.41213C21.1042 8.10173 20.7011 7.85511 20.256 7.68674C19.811 7.51837 19.333 7.43164 18.8503 7.43164C18.3675 7.43164 17.8895 7.51837 17.4445 7.68674C16.9995 7.85511 16.5963 8.10173 16.2586 8.41213C15.9209 8.72254 15.6556 9.09048 15.4781 9.49436C15.3006 9.89825 15.2146 10.33 15.225 10.7641V17.8304L3.7675 25.1878C2.60498 25.9067 1.65447 26.8693 0.99807 27.9925C0.341673 29.1157 -0.000878282 30.3658 1.69113e-06 31.6348V45.1127C1.69113e-06 45.5925 0.487338 45.9818 1.08714 45.9818C1.68694 45.9818 2.17598 45.5925 2.17598 45.1127V31.6317C2.17469 30.698 2.42144 29.7776 2.89567 28.9471C3.36991 28.1165 4.05791 27.4 4.90235 26.857L17.401 18.8328V10.7641C17.3915 10.5877 17.4219 10.4114 17.4904 10.2459C17.5589 10.0804 17.6641 9.92908 17.7995 9.8012C17.9349 9.67332 18.0978 9.57151 18.2783 9.50195C18.4588 9.43238 18.6531 9.39652 18.8494 9.39652C19.0458 9.39652 19.2401 9.43238 19.4205 9.50195C19.601 9.57151 19.7639 9.67332 19.8993 9.8012C20.0348 9.92908 20.1399 10.0804 20.2084 10.2459C20.2769 10.4114 20.3073 10.5877 20.2978 10.7641V16.9689L20.5193 16.8264L21.5025 16.1964L25.4506 13.6627C26.5076 13.0469 27.7399 12.7193 28.9991 12.7193C30.2584 12.7193 31.4907 13.0469 32.5477 13.6627L53.1181 26.2148C53.9571 26.7581 54.6402 27.4732 55.111 28.3011C55.5819 29.129 55.8268 30.0458 55.8257 30.9757V44.6713C55.8257 45.442 55.657 46.2052 55.3291 46.9173C55.0012 47.6293 54.5206 48.2763 53.9147 48.8213C53.3089 49.3663 52.5896 49.7987 51.798 50.0936C51.0064 50.3885 50.158 50.5404 49.3012 50.5404H13.7767C12.9198 50.5404 12.0714 50.3885 11.2798 50.0936C10.4882 49.7987 9.76898 49.3663 9.16312 48.8213C8.55727 48.2763 8.07667 47.6293 7.74878 46.9173C7.42089 46.2052 7.25213 45.442 7.25213 44.6713V31.6317C7.27018 31.2971 7.43066 30.9816 7.7003 30.7505C7.96995 30.5194 8.32809 30.3905 8.70051 30.3905C9.07293 30.3905 9.43108 30.5194 9.70072 30.7505C9.97037 30.9816 10.1308 31.2971 10.1489 31.6317V44.6743C10.1384 45.1085 10.2245 45.5402 10.4019 45.9441C10.5794 46.348 10.8448 46.7159 11.1825 47.0263C11.5201 47.3367 11.9233 47.5834 12.3683 47.7517C12.8134 47.9201 13.2913 48.0068 13.7741 48.0068C14.2569 48.0068 14.7348 47.9201 15.1799 47.7517C15.6249 47.5834 16.0281 47.3367 16.3658 47.0263C16.7034 46.7159 16.9688 46.348 17.1463 45.9441C17.3238 45.5402 17.4098 45.1085 17.3993 44.6743V25.1096C17.3898 24.9332 17.4202 24.7569 17.4887 24.5914C17.5572 24.4259 17.6624 24.2746 17.7978 24.1467C17.9332 24.0188 18.0961 23.917 18.2766 23.8474C18.4571 23.7779 18.6514 23.742 18.8477 23.742C19.044 23.742 19.2383 23.7779 19.4188 23.8474C19.5993 23.917 19.7622 24.0188 19.8976 24.1467C20.033 24.2746 20.1382 24.4259 20.2067 24.5914C20.2752 24.7569 20.3056 24.9332 20.2961 25.1096V44.6743C20.2856 45.1085 20.3716 45.5402 20.5491 45.9441C20.7266 46.348 20.992 46.7159 21.3296 47.0263C21.6673 47.3367 22.0705 47.5834 22.5155 47.7517C22.9606 47.9201 23.4385 48.0068 23.9213 48.0068C24.4041 48.0068 24.882 47.9201 25.3271 47.7517C25.7721 47.5834 26.1753 47.3367 26.513 47.0263C26.8506 46.7159 27.116 46.348 27.2935 45.9441C27.4709 45.5402 27.557 45.1085 27.5465 44.6743V18.5814C27.537 18.405 27.5674 18.2287 27.6359 18.0632C27.7044 17.8977 27.8095 17.7464 27.945 17.6185C28.0804 17.4906 28.2433 17.3888 28.4238 17.3192C28.6042 17.2497 28.7985 17.2138 28.9949 17.2138C29.1912 17.2138 29.3855 17.2497 29.566 17.3192C29.7465 17.3888 29.9094 17.4906 30.0448 17.6185C30.1802 17.7464 30.2854 17.8977 30.3539 18.0632C30.4224 18.2287 30.4528 18.405 30.4433 18.5814V44.6743C30.4328 45.1085 30.5188 45.5402 30.6963 45.9441C30.8738 46.348 31.1392 46.7159 31.4768 47.0263C31.8145 47.3367 32.2177 47.5834 32.6627 47.7517C33.1078 47.9201 33.5857 48.0068 34.0685 48.0068C34.5513 48.0068 35.0292 47.9201 35.4743 47.7517C35.9193 47.5834 36.3225 47.3367 36.6601 47.0263C36.9978 46.7159 37.2632 46.348 37.4407 45.9441C37.6181 45.5402 37.7042 45.1085 37.6937 44.6743V25.1096C37.7117 24.775 37.8722 24.4595 38.1419 24.2284C38.4115 23.9973 38.7697 23.8684 39.1421 23.8684C39.5145 23.8684 39.8726 23.9973 40.1423 24.2284C40.4119 24.4595 40.5724 24.775 40.5905 25.1096V44.6743C40.5905 45.1025 40.6842 45.5264 40.8663 45.922C41.0485 46.3175 41.3155 46.6769 41.652 46.9797C41.9886 47.2824 42.3881 47.5226 42.8278 47.6864C43.2676 47.8503 43.7389 47.9346 44.2148 47.9346C44.6908 47.9346 45.1621 47.8503 45.6018 47.6864C46.0415 47.5226 46.4411 47.2824 46.7776 46.9797C47.1142 46.6769 47.3811 46.3175 47.5633 45.922C47.7454 45.5264 47.8392 45.1025 47.8392 44.6743V30.9787C47.8572 30.6441 48.0177 30.3286 48.2874 30.0975C48.557 29.8664 48.9151 29.7375 49.2876 29.7375C49.66 29.7375 50.0181 29.8664 50.2878 30.0975C50.5574 30.3286 50.7179 30.6441 50.7359 30.9787V45.0008C50.7471 45.2537 50.8666 45.4929 51.0694 45.6682C51.2722 45.8436 51.5426 45.9415 51.8239 45.9415C52.1053 45.9415 52.3757 45.8436 52.5785 45.6682C52.7813 45.4929 52.9008 45.2537 52.9119 45.0008V30.9787C52.8914 30.1261 52.5004 29.3146 51.8228 28.7181C51.1452 28.1217 50.2348 27.7876 49.2867 27.7876C48.3386 27.7876 47.4283 28.1217 46.7506 28.7181C46.073 29.3146 45.6821 30.1261 45.6615 30.9787V44.6743C45.671 44.8507 45.6406 45.0271 45.5721 45.1926C45.5036 45.3581 45.3985 45.5094 45.263 45.6373C45.1276 45.7652 44.9647 45.867 44.7842 45.9365C44.6038 46.0061 44.4095 46.042 44.2131 46.042C44.0168 46.042 43.8225 46.0061 43.642 45.9365C43.4615 45.867 43.2986 45.7652 43.1632 45.6373C43.0278 45.5094 42.9226 45.3581 42.8541 45.1926C42.7856 45.0271 42.7552 44.8507 42.7647 44.6743V25.1096C42.7442 24.257 42.3532 23.4455 41.6756 22.849C40.998 22.2526 40.0876 21.9185 39.1395 21.9185C38.1914 21.9185 37.2811 22.2526 36.6035 22.849C35.9258 23.4455 35.5349 24.257 35.5143 25.1096V44.6743C35.5238 44.8507 35.4934 45.0271 35.4249 45.1926C35.3564 45.3581 35.2513 45.5094 35.1158 45.6373C34.9804 45.7652 34.8175 45.867 34.637 45.9365C34.4566 46.0061 34.2623 46.042 34.0659 46.042C33.8696 46.042 33.6753 46.0061 33.4948 45.9365C33.3143 45.867 33.1514 45.7652 33.016 45.6373C32.8806 45.5094 32.7754 45.3581 32.7069 45.1926C32.6384 45.0271 32.608 44.8507 32.6175 44.6743V18.5814C32.6175 17.7168 32.2357 16.8875 31.556 16.2761C30.8763 15.6647 29.9544 15.3212 28.9932 15.3212C28.0319 15.3212 27.1101 15.6647 26.4304 16.2761C25.7507 16.8875 25.3688 17.7168 25.3688 18.5814H25.3773Z" fill="#FAF39E"/>
</g>
<defs>
<clipPath id="clip0_2187_20223">
<rect width="58" height="45" fill="white" transform="translate(0 7.5)"/>
</clipPath>
</defs>
</svg>
