<svg width="38" height="38" viewBox="0 0 38 38" fill="none" xmlns="http://www.w3.org/2000/svg">
<path d="M3.23438 20.752V36.9987H28.7119" stroke="#27AE60" stroke-width="1.3" stroke-linejoin="round"/>
<path d="M28.7109 14.3711V37.0004H34.5265" stroke="#27AE60" stroke-width="1.3" stroke-linecap="round" stroke-linejoin="round"/>
<path d="M3.23438 20.752V36.9987H15.4193V20.752" stroke="#27AE60" stroke-width="1.3" stroke-linejoin="round"/>
<path d="M29.5391 14.3711H34.5238L37.2931 20.7537H32.0314L29.5391 14.3711Z" stroke="#27AE60" stroke-width="1.3" stroke-linejoin="round"/>
<path d="M5.59559 14.3711H2.40459L1.29688 20.4636H26.7744L27.8821 14.3711H20.6411" stroke="#27AE60" stroke-width="1.3" stroke-linejoin="round"/>
<path d="M19.1109 21.041V20.391H17.8109V21.041H19.1109ZM17.8109 23.9422C17.8109 24.3012 18.102 24.5922 18.4609 24.5922C18.8199 24.5922 19.1109 24.3012 19.1109 23.9422H17.8109ZM17.8109 21.041V23.9422H19.1109V21.041H17.8109Z" fill="#27AE60"/>
<line x1="18.8375" y1="29.525" x2="18.8375" y2="36.3484" stroke="#27AE60" stroke-width="1.3" stroke-linecap="round"/>
<line x1="18.8375" y1="26.0445" x2="18.8375" y2="27.0655" stroke="#27AE60" stroke-width="1.3" stroke-linecap="round"/>
<path d="M34.5312 37V20.7533" stroke="#27AE60" stroke-width="1.3" stroke-linecap="round"/>
<rect x="5.59375" y="1" width="15.0455" height="17.487" stroke="#27AE60" stroke-width="1.3" stroke-linejoin="round"/>
</svg>
